#!OML:ASF H:\ManfredETheater\Project 1\Capture day 1\Session 1\subject.ASF
:FULLY-SPECIFIED
:DEGREES
187
root -7.83903 16.0564 18.908 -158.531 11.178 161.436
lowerback 22.5935 -0.596136 -4.87539
upperback 1.7792 -1.70412 -1.17091
thorax -10.5742 -0.419122 1.98391
lowerneck -17.0034 1.87382 -2.33773
upperneck -2.17937 4.31485 -9.88152
head 2.47237 2.23404 -2.53002
rclavicle -4.77083e-014 -2.22639e-014
rhumerus -40.9044 6.09941 -73.5511
rradius 61.5032
rwrist 1.34378
rhand -32.9404 3.00923
rfingers 7.12502
rthumb -6.1567 -26.8813
lclavicle -4.77083e-014 -2.22639e-014
lhumerus -22.345 -13.8782 92.1015
lradius 87.009
lwrist -5.59297
lhand -23.2081 -14.2172
lfingers 7.12502
lthumb 3.24215 15.7379
rfemur -73.0055 -12.9392 36.513
rtibia 64.0186
rfoot -16.432 -3.05104
rtoes -36.155
lfemur -13.1761 -0.807001 -35.7195
ltibia 57.4713
lfoot 12.5967 -12.4584
ltoes -2.47613
188
root -7.79913 16.0372 18.5675 -159.001 11.3679 161.283
lowerback 23.7727 -0.513332 -4.93679
upperback 2.37009 -1.5658 -1.31963
thorax -10.5533 -0.31776 1.81939
lowerneck -16.8745 1.61061 -2.5517
upperneck -2.69866 4.00332 -9.85781
head 2.24959 2.13296 -2.50523
rclavicle 1.59028e-015 -3.18055e-015
rhumerus -38.8538 5.94235 -73.2205
rradius 61.6648
rwrist 1.51751
rhand -33.1593 3.18645
rfingers 7.12502
rthumb -6.36798 -26.6978
lclavicle 1.59028e-015 -3.18055e-015
lhumerus -21.5924 -12.822 91.4029
lradius 86.5027
lwrist -5.7089
lhand -23.3921 -13.9529
lfingers 7.12502
lthumb 3.06445 16.0048
rfemur -71.6283 -13.0892 37.2048
rtibia 62.9526
rfoot -15.2266 -3.69006
rtoes -31.7693
lfemur -15.625 -0.600966 -34.9214
ltibia 62.0338
lfoot 10.953 -11.6537
ltoes -2.81434
189
root -7.75904 16.0076 18.229 -159.441 11.568 161.242
lowerback 24.9551 -0.423558 -4.93471
upperback 2.97313 -1.38611 -1.42703
thorax -10.512 -0.195124 1.64605
lowerneck -16.7076 1.32418 -2.75492
upperneck -3.19868 3.65393 -9.8205
head 2.02729 2.01293 -2.48025
rclavicle -2.22639e-014 -2.22639e-014
rhumerus -36.6774 5.89813 -72.777
rradius 61.8577
rwrist 1.67666
rhand -33.3457 3.24351
rfingers 7.12502
rthumb -6.54798 -26.6353
lclavicle -2.22639e-014 -2.22639e-014
lhumerus -20.8321 -11.6996 90.6884
lradius 86.1302
lwrist -5.5084
lhand -23.6615 -13.6956
lfingers 7.12502
lthumb 2.80428 16.2657
rfemur -70.132 -13.1313 37.7755
rtibia 62.1494
rfoot -14.3083 -4.61404
rtoes -26.3193
lfemur -18.3233 -0.393928 -33.9659
ltibia 66.5962
lfoot 9.22919 -10.7693
ltoes -2.98163
190
root -7.71956 15.9664 17.8935 -159.828 11.7411 161.293
lowerback 26.1323 -0.351857 -4.8546
upperback 3.5774 -1.19301 -1.49354
thorax -10.4561 -0.064914 1.46369
lowerneck -16.5026 1.01019 -2.96653
upperneck -3.67457 3.26247 -9.7481
head 1.80601 1.87147 -2.44421
rclavicle -1.74931e-014 -2.38542e-014
rhumerus -34.3691 5.96816 -72.2025
rradius 62.0797
rwrist 1.82092
rhand -33.4863 3.17464
rfingers 7.12502
rthumb -6.68373 -26.6999
lclavicle -1.74931e-014 -2.38542e-014
lhumerus -20.0745 -10.5164 89.9564
lradius 85.9084
lwrist -4.99291
lhand -23.9799 -13.4253
lfingers 7.12502
lthumb 2.49675 16.5398
rfemur -68.5668 -13.0719 38.2314
rtibia 61.5716
rfoot -13.7738 -5.81325
rtoes -20.2867
lfemur -21.2619 -0.210836 -32.8624
ltibia 71.0231
lfoot 7.47493 -9.53832
ltoes -2.64024
191
root -7.68206 15.9128 17.5614 -160.144 11.8821 161.435
lowerback 27.2999 -0.310976 -4.67657
upperback 4.17496 -0.99699 -1.52516
thorax -10.3919 0.0671346 1.25782
lowerneck -16.2411 0.66457 -3.20313
upperneck -4.14193 2.82261 -9.62009
head 1.57668 1.70682 -2.38722
rclavicle 1.11319e-014 -2.70347e-014
rhumerus -31.924 6.13665 -71.4828
rradius 62.3237
rwrist 1.95613
rhand -33.5858 3.0005
rfingers 7.12502
rthumb -6.77971 -26.871
lclavicle 1.11319e-014 -2.70347e-014
lhumerus -19.3285 -9.28209 89.2039
lradius 85.8474
lwrist -4.2201
lhand -24.2928 -13.1236
lfingers 7.12502
lthumb 2.19455 16.8449
rfemur -67.0307 -12.8869 38.5693
rtibia 61.3674
rfoot -13.8176 -7.27364
rtoes -14.5024
lfemur -24.4877 -0.0430923 -31.6235
ltibia 75.3658
lfoot 5.50101 -7.72346
ltoes -2.21241
192
root -7.62932 15.8986 17.2252 -160.388 11.9844 161.664
lowerback 28.4678 -0.315948 -4.38381
upperback 4.76283 -0.810797 -1.52685
thorax -10.3275 0.195057 1.01794
lowerneck -15.9255 0.284471 -3.46498
upperneck -4.60233 2.32982 -9.42853
head 1.33999 1.5163 -2.30655
rclavicle -3.02153e-014 -8.90555e-014
rhumerus -29.3309 6.3823 -70.6057
rradius 62.5771
rwrist 2.08441
rhand -33.6614 2.75067
rfingers 7.12502
rthumb -6.85267 -27.1184
lclavicle -3.02153e-014 -8.90555e-014
lhumerus -18.6046 -7.99765 88.4309
lradius 85.9427
lwrist -3.32707
lhand -24.5845 -12.7813
lfingers 7.12502
lthumb 1.91288 17.1899
rfemur -65.2838 -12.6209 38.7353
rtibia 61.3621
rfoot -14.5279 -8.8864
rtoes -9.63405
lfemur -27.8664 0.134287 -30.2088
ltibia 79.3295
lfoot 3.56848 -5.34604
ltoes -1.60578
193
root -7.59727 15.8235 16.9001 -160.556 12.039 161.967
lowerback 29.6403 -0.382742 -3.97063
upperback 5.34443 -0.649026 -1.50589
thorax -10.26 0.312858 0.738176
lowerneck -15.5797 -0.129074 -3.76656
upperneck -5.05147 1.79003 -9.15488
head 1.10252 1.30227 -2.19282
rclavicle -1.43125e-014 -3.02153e-014
rhumerus -26.5579 6.68091 -69.5589
rradius 62.8162
rwrist 2.20784
rhand -33.7387 2.44681
rfingers 7.12502
rthumb -6.92735 -27.4198
lclavicle -1.43125e-014 -3.02153e-014
lhumerus -17.8869 -6.66547 87.6301
lradius 86.1733
lwrist -2.45661
lhand -24.844 -12.3778
lfingers 7.12502
lthumb 1.66226 17.5955
rfemur -63.9204 -12.1444 38.8041
rtibia 61.918
rfoot -15.6198 -10.7017
rtoes -6.59332
lfemur -31.649 0.278858 -28.7407
ltibia 83.3139
lfoot 1.60829 -2.38745
ltoes -0.327399
194
root -7.57009 15.7394 16.5778 -160.656 12.0621 162.336
lowerback 30.8261 -0.517351 -3.43663
upperback 5.9263 -0.514241 -1.47541
thorax -10.1861 0.420726 0.404822
lowerneck -15.1959 -0.578951 -4.07815
upperneck -5.52103 1.19391 -8.81278
head 0.854541 1.06175 -2.05637
rclavicle 0 -1.11319e-014
rhumerus -23.5857 6.9904 -68.342
rradius 63.0215
rwrist 2.32273
rhand -33.8482 2.13457
rfingers 7.12502
rthumb -7.03305 -27.7286
lclavicle 0 -1.11319e-014
lhumerus -17.1632 -5.29373 86.7934
lradius 86.5119
lwrist -1.74176
lhand -25.0933 -11.9274
lfingers 7.12502
lthumb 1.42142 18.0476
rfemur -62.6847 -11.5163 38.7304
rtibia 62.8151
rfoot -17.0647 -12.4915
rtoes -5.26193
lfemur -35.6896 0.413269 -27.1948
ltibia 87.0157
lfoot -0.216635 0.894056
ltoes 1.24072
195
root -7.5486 15.6477 16.2584 -160.697 12.065 162.759
lowerback 32.2802 -0.714915 -2.82487
upperback 6.06477 -0.424286 -1.42589
thorax -9.90096 0.520582 0.0469457
lowerneck -14.7633 -1.06174 -4.38956
upperneck -6.03952 0.543946 -8.41344
head 0.586975 0.797709 -1.90229
rclavicle 2.22639e-014 6.20208e-014
rhumerus -20.3865 7.29942 -66.9517
rradius 63.1738
rwrist 2.42015
rhand -34.0099 1.79046
rfingers 7.12502
rthumb -7.18915 -28.0674
lclavicle 2.22639e-014 6.20208e-014
lhumerus -16.4367 -3.86352 85.9284
lradius 86.9399
lwrist -1.2634
lhand -25.3649 -11.4679
lfingers 7.12502
lthumb 1.15914 18.5086
rfemur -61.6242 -10.7603 38.5304
rtibia 64.1037
rfoot -18.743 -14.167
rtoes -5.90672
lfemur -39.958 0.543723 -25.598
ltibia 90.4068
lfoot -1.94544 4.18944
ltoes 3.09281
196
root -7.53255 15.5502 15.9406 -160.695 12.0669 163.218
lowerback 33.5596 -0.99977 -2.11562
upperback 6.62633 -0.362659 -1.4091
thorax -9.79649 0.609767 -0.353417
lowerneck -14.2762 -1.58082 -4.66195
upperneck -6.64456 -0.169632 -7.97654
head 0.288689 0.50723 -1.74381
rclavicle -1.43125e-014 -6.36111e-015
rhumerus -16.942 7.55869 -65.391
rradius 63.2538
rwrist 2.47947
rhand -34.2359 1.43666
rfingers 7.12502
rthumb -7.40729 -28.4137
lclavicle -1.43125e-014 -6.36111e-015
lhumerus -15.6876 -2.3847 85.0399
lradius 87.4321
lwrist -1.03943
lhand -25.6883 -11.0549
lfingers 7.12502
lthumb 0.846823 18.9231
rfemur -60.7058 -9.8987 38.2106
rtibia 65.634
rfoot -20.4144 -15.6121
rtoes -7.79106
lfemur -44.3988 0.688277 -23.9888
ltibia 93.3465
lfoot -3.56449 7.17254
ltoes 5.08523
197
root -7.5214 15.4482 15.624 -160.683 12.0736 163.68
lowerback 34.9092 -1.35446 -1.38294
upperback 7.20186 -0.34126 -1.40495
thorax -9.68336 0.692254 -0.76378
lowerneck -13.7117 -2.13709 -4.87257
upperneck -7.36006 -0.953294 -7.50777
head -0.0501718 0.187577 -1.58589
rclavicle 9.54166e-015 1.11319e-014
rhumerus -13.2386 7.75671 -63.6488
rradius 63.2352
rwrist 2.44616
rhand -34.5145 1.0492
rfingers 7.12502
rthumb -7.67619 -28.7915
lclavicle 9.54166e-015 1.11319e-014
lhumerus -14.9235 -0.85592 84.1503
lradius 87.977
lwrist -1.02695
lhand -26.051 -10.7239
lfingers 7.12502
lthumb 0.496525 19.2552
rfemur -59.9132 -8.99922 37.8077
rtibia 67.3591
rfoot -21.89 -16.7151
rtoes -10.1907
lfemur -48.9391 0.857636 -22.4194
ltibia 95.7639
lfoot -5.10993 9.5731
ltoes 6.82236
